<?xml version="1.0" encoding="UTF-8"?>
<svg xmlns="http://www.w3.org/2000/svg" viewBox="0 0 1432.08 1413.7">
  <g id="Calque_1" data-name="Calque 1">
    <path d="m1.75,84.66C17.33,56.96,32.91,29.25,48.49,1.55c10.26,4.1,25.31,8.73,43.92,9.81,26.48,1.54,47.52-4.84,59.48-9.52,17.67,26.74,35.33,53.48,53,80.22-17.32,26.07-34.64,52.13-51.96,78.2-13.38,3.24-30.44,6.17-50.35,6.7-19.34.51-36.11-1.38-49.39-3.8C36.05,136.99,18.9,110.82,1.75,84.66" style="fill: none; stroke: #1d1d1b; stroke-miterlimit: 10; stroke-width: 2px;"/>
    <path d="m1.98,239.1c15.86,25.02,31.73,50.05,47.59,75.07" style="fill: none; stroke: #1d1d1b; stroke-miterlimit: 10; stroke-width: 2px;"/>
    <path d="m53.2,163.16c-17.08,25.32-34.15,50.63-51.23,75.95" style="fill: none; stroke: #1d1d1b; stroke-miterlimit: 10; stroke-width: 2px;"/>
    <path d="m152.94,160.26c18.03,25.17,36.07,50.35,54.1,75.52-18.03,26.67-36.07,53.33-54.1,80" style="fill: none; stroke: #1d1d1b; stroke-miterlimit: 10; stroke-width: 2px;"/>
    <path d="m1.83,393.62c15.91-26.48,31.83-52.96,47.74-79.44,12.02,2.97,26.65,5.57,43.39,6.43,24.02,1.23,44.53-1.51,59.99-4.82,17.5,25.17,34.99,50.35,52.49,75.52-17.32,26.07-34.64,52.13-51.96,78.2-13.38,3.24-30.44,6.17-50.35,6.7-19.34.51-36.11-1.38-49.39-3.8-17.3-26.26-34.61-52.52-51.91-78.78" style="fill: none; stroke: #1d1d1b; stroke-miterlimit: 10; stroke-width: 2px;"/>
    <path d="m1.98,547.18c17.06,27.05,34.12,54.1,51.18,81.14" style="fill: none; stroke: #1d1d1b; stroke-miterlimit: 10; stroke-width: 2px;"/>
    <path d="m53.74,472.4c-17.25,24.92-34.51,49.85-51.76,74.77" style="fill: none; stroke: #1d1d1b; stroke-miterlimit: 10; stroke-width: 2px;"/>
    <path d="m153.48,469.51c18.03,25.17,36.07,50.35,54.1,75.52-19,27.6-38.01,55.21-57.01,82.81" style="fill: none; stroke: #1d1d1b; stroke-miterlimit: 10; stroke-width: 2px;"/>
    <path d="m513.49,84.03c-17.32,26.07-34.64,52.13-51.96,78.2-13.38,3.24-30.44,6.17-50.35,6.7-19.34.51-36.11-1.38-49.39-3.8-18.12-27.7-36.25-55.4-54.37-83.11,16.7-26.9,33.4-53.8,50.11-80.7,13.85,2.44,30.4,4.33,49.11,4.44,20.8.13,39.05-1.97,54-4.67,17.62,27.64,35.23,55.29,52.85,82.93" style="fill: none; stroke: #1d1d1b; stroke-miterlimit: 10; stroke-width: 2px;"/>
    <path d="m361.8,165.13c-18.26,23.42-36.51,46.85-54.77,70.27,16.47,26.45,32.94,52.91,49.41,79.36" style="fill: none; stroke: #1d1d1b; stroke-miterlimit: 10; stroke-width: 2px;"/>
    <path d="m514.09,237.33c-17.24,25.83-34.47,51.66-51.71,77.49" style="fill: none; stroke: #1d1d1b; stroke-miterlimit: 10; stroke-width: 2px;"/>
    <path d="m461.53,162.23c17.52,25.03,35.03,50.06,52.55,75.09" style="fill: none; stroke: #1d1d1b; stroke-miterlimit: 10; stroke-width: 2px;"/>
    <path d="m512.3,391.73c-16.74,25.2-33.48,50.4-50.23,75.6-13.02,3.31-30.15,6.38-50.35,6.7-19.66.31-36.48-2.08-49.39-4.85-18-25.79-35.99-51.58-53.99-77.37,16.03-25.68,32.06-51.36,48.09-77.04,13.51,1.91,28.62,3.31,45.11,3.66,22.84.49,43.32-1.15,60.83-3.61,16.64,25.64,33.28,51.28,49.92,76.91Z" style="fill: none; stroke: #1d1d1b; stroke-miterlimit: 10; stroke-width: 2px;"/>
    <path d="m362.33,469.17c-18.17,25.28-36.35,50.56-54.52,75.84,17.98,28.49,35.96,56.99,53.94,85.48" style="fill: none; stroke: #1d1d1b; stroke-miterlimit: 10; stroke-width: 2px;"/>
    <path d="m513.69,546.98c-18.27,27.45-36.55,54.89-54.82,82.34" style="fill: none; stroke: #1d1d1b; stroke-miterlimit: 10; stroke-width: 2px;"/>
    <path d="m461.53,467.46c17.38,26.51,34.77,53.02,52.15,79.52" style="fill: none; stroke: #1d1d1b; stroke-miterlimit: 10; stroke-width: 2px;"/>
    <path d="m205.43,391.31c13.37-2.57,29.55-4.63,47.94-4.81,22.03-.21,41.1,2.33,56.24,5.43" style="fill: none; stroke: #1d1d1b; stroke-miterlimit: 10; stroke-width: 2px;"/>
    <path d="m207.43,545.24c13.42-2.08,28.85-3.64,45.94-3.9,20.6-.31,38.94,1.34,54.44,3.67" style="fill: none; stroke: #1d1d1b; stroke-miterlimit: 10; stroke-width: 2px;"/>
    <path d="m204.9,82.06c13.16-2.7,29.27-4.92,47.69-5.19,21.55-.31,40.16,2.15,54.84,5.15" style="fill: none; stroke: #1d1d1b; stroke-miterlimit: 10; stroke-width: 2px;"/>
    <path d="m207.04,235.79c13.26-2.14,28.56-3.76,45.55-4.06,20.66-.36,39.02,1.31,54.44,3.67" style="fill: none; stroke: #1d1d1b; stroke-miterlimit: 10; stroke-width: 2px;"/>
    <path d="m818.95,85.89c-17.32,26.07-34.64,52.13-51.96,78.2-13.38,3.24-30.44,6.17-50.35,6.7-19.34.51-36.11-1.38-49.39-3.8-18.12-27.7-36.25-55.4-54.37-83.11,16.7-26.9,33.4-53.8,50.11-80.7,13.85,2.44,30.4,4.33,49.11,4.44,20.8.13,39.05-1.97,54-4.67,17.62,27.64,35.23,55.29,52.85,82.93" style="fill: none; stroke: #1d1d1b; stroke-miterlimit: 10; stroke-width: 2px;"/>
    <path d="m667.25,166.99c-18.26,23.42-36.51,46.85-54.77,70.27,16.47,26.45,32.94,52.91,49.41,79.36" style="fill: none; stroke: #1d1d1b; stroke-miterlimit: 10; stroke-width: 2px;"/>
    <path d="m819.54,239.18c-17.24,25.83-34.47,51.66-51.71,77.49" style="fill: none; stroke: #1d1d1b; stroke-miterlimit: 10; stroke-width: 2px;"/>
    <path d="m766.99,164.09c17.52,25.03,35.03,50.06,52.55,75.09" style="fill: none; stroke: #1d1d1b; stroke-miterlimit: 10; stroke-width: 2px;"/>
    <path d="m817.75,393.59c-16.74,25.2-33.48,50.4-50.23,75.6-13.38,3.24-30.44,6.17-50.35,6.7-19.34.51-36.11-1.38-49.39-3.8-18-26.14-35.99-52.28-53.99-78.42,16.03-25.68,32.06-51.36,48.09-77.04,13.51,1.91,28.62,3.31,45.11,3.66,22.84.49,43.32-1.15,60.83-3.61,16.64,25.64,33.28,51.28,49.92,76.91" style="fill: none; stroke: #1d1d1b; stroke-miterlimit: 10; stroke-width: 2px;"/>
    <path d="m667.79,471.03c-18.17,25.28-36.35,50.56-54.52,75.84,17.98,27.26,35.96,54.51,53.94,81.77" style="fill: none; stroke: #1d1d1b; stroke-miterlimit: 10; stroke-width: 2px;"/>
    <path d="m819.14,548.84c-17.4,27.56-34.8,55.13-52.2,82.69" style="fill: none; stroke: #1d1d1b; stroke-miterlimit: 10; stroke-width: 2px;"/>
    <path d="m766.99,469.32c17.38,26.51,34.77,53.02,52.15,79.52" style="fill: none; stroke: #1d1d1b; stroke-miterlimit: 10; stroke-width: 2px;"/>
    <path d="m512.3,391.73c13.38-2.02,29.05-3.46,46.54-3.38,21.11.1,39.67,2.41,54.97,5.31" style="fill: none; stroke: #1d1d1b; stroke-miterlimit: 10; stroke-width: 2px;"/>
    <path d="m513.69,546.98c13.23-2.02,28.38-3.53,45.15-3.78,20.59-.31,38.93,1.33,54.44,3.67" style="fill: none; stroke: #1d1d1b; stroke-miterlimit: 10; stroke-width: 2px;"/>
    <path d="m513.49,84.03c12.31-2.67,27.35-4.9,44.56-5.3,21.73-.5,40.39,2.07,54.84,5.15" style="fill: none; stroke: #1d1d1b; stroke-miterlimit: 10; stroke-width: 2px;"/>
    <path d="m514.09,237.33c12.9-1.99,27.66-3.46,43.96-3.74,20.61-.35,38.96,1.31,54.44,3.67" style="fill: none; stroke: #1d1d1b; stroke-miterlimit: 10; stroke-width: 2px;"/>
    <path d="m1125.19,87.47c-17.32,26.07-34.64,52.13-51.96,78.2-13.38,3.24-30.44,6.17-50.35,6.7-19.34.51-36.11-1.38-49.39-3.8-18.12-27.7-36.25-55.4-54.37-83.11,16.7-26.9,33.4-53.8,50.11-80.7,13.85,2.44,30.4,4.33,49.11,4.44,20.8.13,39.05-1.97,54-4.67,17.62,27.64,35.23,55.29,52.85,82.93" style="fill: none; stroke: #1d1d1b; stroke-miterlimit: 10; stroke-width: 2px;"/>
    <path d="m973.5,168.57c-18.26,23.42-36.51,46.85-54.77,70.27,16.47,26.45,32.94,52.91,49.41,79.36" style="fill: none; stroke: #1d1d1b; stroke-miterlimit: 10; stroke-width: 2px;"/>
    <path d="m1125.79,240.77c-17.24,25.83-34.47,51.66-51.71,77.49" style="fill: none; stroke: #1d1d1b; stroke-miterlimit: 10; stroke-width: 2px;"/>
    <path d="m1073.24,165.67c17.52,25.03,35.03,50.06,52.55,75.09" style="fill: none; stroke: #1d1d1b; stroke-miterlimit: 10; stroke-width: 2px;"/>
    <path d="m1124,395.17c-16.74,25.2-33.48,50.4-50.23,75.6-13.38,3.24-30.44,6.17-50.35,6.7-19.34.51-36.11-1.38-49.39-3.8-18-26.14-35.99-52.28-53.99-78.42,16.03-25.68,32.06-51.36,48.09-77.04,13.51,1.91,28.62,3.31,45.11,3.66,22.84.49,43.32-1.15,60.83-3.61,16.64,25.64,33.28,51.28,49.92,76.91" style="fill: none; stroke: #1d1d1b; stroke-miterlimit: 10; stroke-width: 2px;"/>
    <path d="m974.03,472.62c-18.17,25.28-36.35,50.56-54.52,75.84,17.98,26.2,35.96,52.4,53.94,78.6" style="fill: none; stroke: #1d1d1b; stroke-miterlimit: 10; stroke-width: 2px;"/>
    <path d="m1125.39,550.42c-17.4,26.51-34.8,53.02-52.2,79.53" style="fill: none; stroke: #1d1d1b; stroke-miterlimit: 10; stroke-width: 2px;"/>
    <path d="m1073.24,470.9c17.38,26.51,34.77,53.02,52.15,79.52" style="fill: none; stroke: #1d1d1b; stroke-miterlimit: 10; stroke-width: 2px;"/>
    <path d="m817.75,393.59c13.51-2.14,29.45-3.71,47.32-3.65,21.18.06,39.75,2.39,54.97,5.31" style="fill: none; stroke: #1d1d1b; stroke-miterlimit: 10; stroke-width: 2px;"/>
    <path d="m818.69,549.33c13.35-2.34,28.94-4.16,46.39-4.54,20.79-.45,39.17,1.27,54.44,3.67" style="fill: none; stroke: #1d1d1b; stroke-miterlimit: 10; stroke-width: 2px;"/>
    <path d="m818.95,85.89c12.43-2.78,27.75-5.14,45.34-5.57,21.78-.53,40.45,2.06,54.84,5.15" style="fill: none; stroke: #1d1d1b; stroke-miterlimit: 10; stroke-width: 2px;"/>
    <path d="m819.54,239.18c13.04-2.11,28.07-3.7,44.75-4.01,20.68-.39,39.04,1.29,54.44,3.67" style="fill: none; stroke: #1d1d1b; stroke-miterlimit: 10; stroke-width: 2px;"/>
    <path d="m1430.65,89.33c-17.32,26.07-34.64,52.13-51.96,78.2-13.38,3.24-30.44,6.17-50.35,6.7-19.34.51-36.11-1.38-49.39-3.8-18.12-27.7-36.25-55.4-54.37-83.11,16.7-26.9,33.4-53.8,50.11-80.7,13.85,2.44,30.4,4.33,49.11,4.44,20.8.13,39.05-1.97,54-4.67,17.62,27.64,35.23,55.29,52.85,82.93" style="fill: none; stroke: #1d1d1b; stroke-miterlimit: 10; stroke-width: 2px;"/>
    <path d="m1278.96,170.43c-18.26,23.42-36.51,46.85-54.77,70.27,16.47,26.45,32.94,52.91,49.41,79.36" style="fill: none; stroke: #1d1d1b; stroke-miterlimit: 10; stroke-width: 2px;"/>
    <path d="m1431.25,242.62c-17.24,25.83-34.47,51.66-51.71,77.49" style="fill: none; stroke: #1d1d1b; stroke-miterlimit: 10; stroke-width: 2px;"/>
    <path d="m1378.69,167.53c17.52,25.03,35.03,50.06,52.55,75.09" style="fill: none; stroke: #1d1d1b; stroke-miterlimit: 10; stroke-width: 2px;"/>
    <path d="m1429.46,397.03c-16.74,25.2-33.48,50.4-50.23,75.6-13.38,3.24-30.44,6.17-50.35,6.7-19.34.51-36.11-1.38-49.39-3.8-18-26.14-35.99-52.28-53.99-78.42,16.03-25.68,32.06-51.36,48.09-77.04,13.51,1.91,28.62,3.31,45.11,3.66,22.84.49,43.32-1.15,60.83-3.61,16.64,25.64,33.28,51.28,49.92,76.91" style="fill: none; stroke: #1d1d1b; stroke-miterlimit: 10; stroke-width: 2px;"/>
    <path d="m1279.49,474.47c-18.17,25.28-36.35,50.56-54.52,75.84,17.98,24.96,35.96,49.92,53.94,74.88" style="fill: none; stroke: #1d1d1b; stroke-miterlimit: 10; stroke-width: 2px;"/>
    <path d="m1430.85,552.28c-17.24,25.58-34.47,51.16-51.71,76.74" style="fill: none; stroke: #1d1d1b; stroke-miterlimit: 10; stroke-width: 2px;"/>
    <path d="m1378.69,472.76c17.38,26.51,34.77,53.02,52.15,79.52" style="fill: none; stroke: #1d1d1b; stroke-miterlimit: 10; stroke-width: 2px;"/>
    <path d="m1124,395.17c13.38-2.02,29.05-3.46,46.54-3.38,21.11.1,39.67,2.41,54.97,5.31" style="fill: none; stroke: #1d1d1b; stroke-miterlimit: 10; stroke-width: 2px;"/>
    <path d="m1124.8,550.3c13.43-1.99,28.78-3.44,45.73-3.65,20.52-.26,38.86,1.36,54.44,3.67" style="fill: none; stroke: #1d1d1b; stroke-miterlimit: 10; stroke-width: 2px;"/>
    <path d="m1125.19,87.47c12.31-2.67,27.35-4.9,44.56-5.3,21.73-.5,40.39,2.07,54.83,5.15" style="fill: none; stroke: #1d1d1b; stroke-miterlimit: 10; stroke-width: 2px;"/>
    <path d="m1125.79,240.77c12.9-1.99,27.66-3.46,43.96-3.74,20.61-.35,38.96,1.31,54.44,3.67" style="fill: none; stroke: #1d1d1b; stroke-miterlimit: 10; stroke-width: 2px;"/>
  </g>
  <g id="Calque_2" data-name="Calque 2">
    <path d="m1.17,1016.06c15.58,27.7,31.16,55.41,46.74,83.11,10.55-4.1,25.54-8.57,43.92-9.81,26.64-1.8,48.05,4,60.7,8.55,17.26-26.42,34.52-52.84,51.78-79.25-17.32-26.07-34.64-52.13-51.96-78.2-13.38-3.24-30.44-6.17-50.35-6.7-19.34-.51-36.11,1.38-49.39,3.8-17.15,26.17-34.3,52.33-51.45,78.5Z" style="fill: none; stroke: #1d1d1b; stroke-miterlimit: 10; stroke-width: 2px;"/>
    <path d="m1.39,861.62c15.86-25.02,31.73-50.05,47.59-75.07" style="fill: none; stroke: #1d1d1b; stroke-miterlimit: 10; stroke-width: 2px;"/>
    <path d="m52.62,937.57c-17.08-25.32-34.15-50.63-51.23-75.95" style="fill: none; stroke: #1d1d1b; stroke-miterlimit: 10; stroke-width: 2px;"/>
    <path d="m152.36,940.46c18.03-25.17,36.07-50.35,54.1-75.52-18.03-26.67-36.07-53.33-54.1-80" style="fill: none; stroke: #1d1d1b; stroke-miterlimit: 10; stroke-width: 2px;"/>
    <path d="m1.24,707.1c15.91,26.48,31.83,52.96,47.74,79.44,12.02-2.97,26.65-5.57,43.39-6.43,24.02-1.23,44.53,1.51,59.99,4.82,17.5-25.17,34.99-50.35,52.49-75.52-18.09-27.19-36.19-54.38-54.28-81.57-13.88-1.97-30.04-3.38-48.02-3.33-18.57.05-35.18,1.64-49.39,3.8-17.3,26.26-34.61,52.52-51.91,78.78Z" style="fill: none; stroke: #1d1d1b; stroke-miterlimit: 10; stroke-width: 2px;"/>
    <path d="m512.91,1016.69c-17.32-26.07-34.64-52.13-51.96-78.2-13.38-3.24-30.44-6.17-50.35-6.7-19.34-.51-36.11,1.38-49.39,3.8-18.12,27.7-36.25,55.4-54.37,83.11,16.7,26.9,33.4,53.8,50.11,80.7,13.85-2.44,30.4-4.33,49.11-4.44,20.8-.13,39.05,1.97,54,4.67,17.62-27.64,35.23-55.29,52.85-82.93" style="fill: none; stroke: #1d1d1b; stroke-miterlimit: 10; stroke-width: 2px;"/>
    <path d="m361.21,935.6c-18.26-23.42-36.51-46.85-54.77-70.27,16.47-26.45,32.94-52.91,49.41-79.36" style="fill: none; stroke: #1d1d1b; stroke-miterlimit: 10; stroke-width: 2px;"/>
    <path d="m513.5,863.4l-51.71-77.49" style="fill: none; stroke: #1d1d1b; stroke-miterlimit: 10; stroke-width: 2px;"/>
    <path d="m460.95,938.49c17.52-25.03,35.03-50.06,52.55-75.09" style="fill: none; stroke: #1d1d1b; stroke-miterlimit: 10; stroke-width: 2px;"/>
    <path d="m511.71,708.99c-17.62-26.56-35.23-53.11-52.85-79.67-14.03-1.69-30.06-2.8-47.73-2.63-18.37.18-34.96,1.71-49.39,3.8-18,26.14-35.99,52.28-53.99,78.42,16.03,25.68,32.06,51.36,48.09,77.04,13.51-1.91,28.62-3.31,45.11-3.66,22.84-.49,43.32,1.15,60.83,3.61l49.92-76.91Z" style="fill: none; stroke: #1d1d1b; stroke-miterlimit: 10; stroke-width: 2px;"/>
    <path d="m204.85,709.42c13.31,2.58,29.5,4.66,47.94,4.81,21.52.18,40.16-2.29,54.97-5.31" style="fill: none; stroke: #1d1d1b; stroke-miterlimit: 10; stroke-width: 2px;"/>
    <path d="m204.07,1019.03c13.35,2.57,29.53,4.63,47.94,4.81,21.55.21,40.24-2.22,55.14-5.2" style="fill: none; stroke: #1d1d1b; stroke-miterlimit: 10; stroke-width: 2px;"/>
    <path d="m206.46,864.94c13.26,2.14,28.56,3.76,45.55,4.06,20.66.36,39.02-1.31,54.44-3.67" style="fill: none; stroke: #1d1d1b; stroke-miterlimit: 10; stroke-width: 2px;"/>
    <path d="m818.37,1014.83c-17.32-26.07-34.64-52.13-51.96-78.2-13.38-3.24-30.44-6.17-50.35-6.7-19.34-.51-36.11,1.38-49.39,3.8-18.12,27.7-36.25,55.4-54.37,83.11,16.7,26.9,33.4,53.8,50.11,80.7,13.85-2.44,30.4-4.33,49.11-4.44,20.8-.13,39.05,1.97,54,4.67,17.62-27.64,35.23-55.29,52.85-82.93" style="fill: none; stroke: #1d1d1b; stroke-miterlimit: 10; stroke-width: 2px;"/>
    <path d="m666.67,933.74c-18.26-23.42-36.51-46.85-54.77-70.27,16.47-26.45,32.94-52.91,49.41-79.36" style="fill: none; stroke: #1d1d1b; stroke-miterlimit: 10; stroke-width: 2px;"/>
    <path d="m818.96,861.54c-17.24-25.83-34.47-51.66-51.71-77.49" style="fill: none; stroke: #1d1d1b; stroke-miterlimit: 10; stroke-width: 2px;"/>
    <path d="m766.41,936.63c17.52-25.03,35.03-50.06,52.55-75.09" style="fill: none; stroke: #1d1d1b; stroke-miterlimit: 10; stroke-width: 2px;"/>
    <path d="m817.17,707.13c-16.74-25.2-33.48-50.4-50.23-75.6-13.38-3.24-30.44-6.17-50.35-6.7-19.34-.51-36.11,1.38-49.39,3.8-18,26.14-35.99,52.28-53.99,78.42,16.03,25.68,32.06,51.36,48.09,77.04,13.51-1.91,28.62-3.31,45.11-3.66,22.84-.49,43.32,1.15,60.83,3.61,16.64-25.64,33.28-51.28,49.92-76.91" style="fill: none; stroke: #1d1d1b; stroke-miterlimit: 10; stroke-width: 2px;"/>
    <path d="m511.71,708.99c13.38,2.02,29.05,3.46,46.54,3.38,21.11-.1,39.67-2.41,54.97-5.31" style="fill: none; stroke: #1d1d1b; stroke-miterlimit: 10; stroke-width: 2px;"/>
    <path d="m512.91,1016.69c12.31,2.67,27.35,4.9,44.56,5.3,21.73.5,40.39-2.07,54.84-5.15" style="fill: none; stroke: #1d1d1b; stroke-miterlimit: 10; stroke-width: 2px;"/>
    <path d="m513.5,863.4c12.9,1.99,27.66,3.46,43.96,3.74,20.61.35,38.96-1.31,54.44-3.67" style="fill: none; stroke: #1d1d1b; stroke-miterlimit: 10; stroke-width: 2px;"/>
    <path d="m1124.61,1013.25c-17.32-26.07-34.64-52.13-51.96-78.2-13.38-3.24-30.44-6.17-50.35-6.7-19.34-.51-36.11,1.38-49.39,3.8-18.12,27.7-36.25,55.4-54.37,83.11,16.7,26.9,33.4,53.8,50.11,80.7,13.85-2.44,30.4-4.33,49.11-4.44,20.8-.13,39.05,1.97,54,4.67,17.62-27.64,35.23-55.29,52.85-82.93" style="fill: none; stroke: #1d1d1b; stroke-miterlimit: 10; stroke-width: 2px;"/>
    <path d="m972.91,932.16c-18.26-23.42-36.51-46.85-54.77-70.27,16.47-26.45,32.94-52.91,49.41-79.36" style="fill: none; stroke: #1d1d1b; stroke-miterlimit: 10; stroke-width: 2px;"/>
    <path d="m1125.2,859.96c-17.24-25.83-34.47-51.66-51.71-77.49" style="fill: none; stroke: #1d1d1b; stroke-miterlimit: 10; stroke-width: 2px;"/>
    <path d="m1072.65,935.05c17.52-25.03,35.03-50.06,52.55-75.09" style="fill: none; stroke: #1d1d1b; stroke-miterlimit: 10; stroke-width: 2px;"/>
    <path d="m1123.41,705.55c-16.74-25.2-33.48-50.4-50.23-75.6-13.38-3.24-30.44-6.17-50.35-6.7-19.34-.51-36.11,1.38-49.39,3.8-18,26.14-35.99,52.28-53.99,78.42,16.03,25.68,32.06,51.36,48.09,77.04,13.51-1.91,28.62-3.31,45.11-3.66,22.84-.49,43.32,1.15,60.83,3.61,16.64-25.64,33.28-51.28,49.92-76.91" style="fill: none; stroke: #1d1d1b; stroke-miterlimit: 10; stroke-width: 2px;"/>
    <path d="m819.53,707.55c13,1.93,28.12,3.3,44.96,3.24,21.12-.08,39.68-2.39,54.97-5.31" style="fill: none; stroke: #1d1d1b; stroke-miterlimit: 10; stroke-width: 2px;"/>
    <path d="m818.37,1014.83c12.43,2.78,27.75,5.14,45.34,5.57,21.78.53,40.45-2.06,54.84-5.15" style="fill: none; stroke: #1d1d1b; stroke-miterlimit: 10; stroke-width: 2px;"/>
    <path d="m818.96,861.54c13.04,2.11,28.07,3.7,44.75,4.01,20.68.39,39.04-1.29,54.44-3.67" style="fill: none; stroke: #1d1d1b; stroke-miterlimit: 10; stroke-width: 2px;"/>
    <path d="m1430.07,1011.39c-17.32-26.07-34.64-52.13-51.96-78.2-13.38-3.24-30.44-6.17-50.35-6.7-19.34-.51-36.11,1.38-49.39,3.8-18.12,27.7-36.25,55.4-54.37,83.11,16.7,26.9,33.4,53.8,50.11,80.7,13.85-2.44,30.4-4.33,49.11-4.44,20.8-.13,39.05,1.97,54,4.67,17.62-27.64,35.23-55.29,52.85-82.93" style="fill: none; stroke: #1d1d1b; stroke-miterlimit: 10; stroke-width: 2px;"/>
    <path d="m1278.37,930.3c-18.26-23.42-36.51-46.85-54.77-70.27,16.47-26.45,32.94-52.91,49.41-79.36" style="fill: none; stroke: #1d1d1b; stroke-miterlimit: 10; stroke-width: 2px;"/>
    <path d="m1430.66,858.1c-17.24-25.83-34.47-51.66-51.71-77.49" style="fill: none; stroke: #1d1d1b; stroke-miterlimit: 10; stroke-width: 2px;"/>
    <path d="m1378.11,933.19c17.52-25.03,35.03-50.06,52.55-75.09" style="fill: none; stroke: #1d1d1b; stroke-miterlimit: 10; stroke-width: 2px;"/>
    <path d="m1428.87,703.69c-16.74-25.2-33.48-50.4-50.23-75.6-13.38-3.24-30.44-6.17-50.35-6.7-19.34-.51-36.11,1.38-49.39,3.8-18,26.14-35.99,52.28-53.99,78.42,16.03,25.68,32.06,51.36,48.09,77.04,13.51-1.91,28.62-3.31,45.11-3.66,22.84-.49,43.32,1.15,60.83,3.61,16.64-25.64,33.28-51.28,49.92-76.91" style="fill: none; stroke: #1d1d1b; stroke-miterlimit: 10; stroke-width: 2px;"/>
    <path d="m1123.41,705.55c13.38,2.02,29.05,3.46,46.54,3.38,21.11-.1,39.67-2.41,54.97-5.31" style="fill: none; stroke: #1d1d1b; stroke-miterlimit: 10; stroke-width: 2px;"/>
    <path d="m1124.61,1013.25c12.31,2.67,27.35,4.9,44.56,5.3,21.73.5,40.39-2.07,54.83-5.15" style="fill: none; stroke: #1d1d1b; stroke-miterlimit: 10; stroke-width: 2px;"/>
    <path d="m1125.2,859.96c12.9,1.99,27.66,3.46,43.96,3.74,20.61.35,38.96-1.31,54.44-3.67" style="fill: none; stroke: #1d1d1b; stroke-miterlimit: 10; stroke-width: 2px;"/>
    <path d="m1.35,1329.04c15.58,27.7,31.16,55.41,46.74,83.11,10.26-4.1,25.31-8.73,43.92-9.81,26.48-1.54,47.52,4.84,59.48,9.52,17.67-26.74,35.33-53.48,53-80.22-17.32-26.07-34.64-52.13-51.96-78.2-13.38-3.24-30.44-6.17-50.35-6.7-19.34-.51-36.11,1.38-49.39,3.8-17.15,26.17-34.3,52.33-51.45,78.5" style="fill: none; stroke: #1d1d1b; stroke-miterlimit: 10; stroke-width: 2px;"/>
    <path d="m1.57,1174.6c15.45-25.14,30.89-50.28,46.34-75.42" style="fill: none; stroke: #1d1d1b; stroke-miterlimit: 10; stroke-width: 2px;"/>
    <path d="m52.8,1250.54c-17.08-25.32-34.15-50.63-51.23-75.95" style="fill: none; stroke: #1d1d1b; stroke-miterlimit: 10; stroke-width: 2px;"/>
    <path d="m152.54,1253.44c18.03-25.17,36.07-50.35,54.1-75.52-18.03-26.67-36.07-53.33-54.1-80" style="fill: none; stroke: #1d1d1b; stroke-miterlimit: 10; stroke-width: 2px;"/>
    <path d="m513.09,1329.67c-17.32-26.07-34.64-52.13-51.96-78.2-13.38-3.24-30.44-6.17-50.35-6.7-19.34-.51-36.11,1.38-49.39,3.8-18.12,27.7-36.25,55.4-54.37,83.11,16.7,26.9,33.4,53.8,50.11,80.7,13.85-2.44,30.4-4.33,49.11-4.44,20.8-.13,39.05,1.97,54,4.67,17.62-27.64,35.23-55.29,52.85-82.93" style="fill: none; stroke: #1d1d1b; stroke-miterlimit: 10; stroke-width: 2px;"/>
    <path d="m361.39,1248.57c-18.26-23.42-36.51-46.85-54.77-70.27,16.78-26.3,33.55-52.6,50.33-78.9" style="fill: none; stroke: #1d1d1b; stroke-miterlimit: 10; stroke-width: 2px;"/>
    <path d="m513.68,1176.37c-17.87-25.58-35.75-51.17-53.62-76.75" style="fill: none; stroke: #1d1d1b; stroke-miterlimit: 10; stroke-width: 2px;"/>
    <path d="m461.13,1251.47c17.52-25.03,35.03-50.06,52.55-75.09" style="fill: none; stroke: #1d1d1b; stroke-miterlimit: 10; stroke-width: 2px;"/>
    <path d="m204.24,1332.01c13.29,2.59,29.48,4.67,47.94,4.81,21.56.17,40.21-2.35,55-5.4" style="fill: none; stroke: #1d1d1b; stroke-miterlimit: 10; stroke-width: 2px;"/>
    <path d="m205.8,1177.43c13.35,2.34,28.94,4.16,46.39,4.54,20.79.45,39.17-1.27,54.44-3.67" style="fill: none; stroke: #1d1d1b; stroke-miterlimit: 10; stroke-width: 2px;"/>
    <path d="m818.54,1327.81c-17.32-26.07-34.64-52.13-51.96-78.2-13.38-3.24-30.44-6.17-50.35-6.7-19.34-.51-36.11,1.38-49.39,3.8-18.12,27.7-36.25,55.4-54.37,83.11,16.7,26.9,33.4,53.8,50.11,80.7,13.85-2.44,30.4-4.33,49.11-4.44,20.8-.13,39.05,1.97,54,4.67,17.62-27.64,35.23-55.29,52.85-82.93" style="fill: none; stroke: #1d1d1b; stroke-miterlimit: 10; stroke-width: 2px;"/>
    <path d="m666.85,1246.71c-18.26-23.42-36.51-46.85-54.77-70.27,16.78-26.3,33.55-52.6,50.33-78.9" style="fill: none; stroke: #1d1d1b; stroke-miterlimit: 10; stroke-width: 2px;"/>
    <path d="m819.14,1174.51c-17.87-25.58-35.75-51.17-53.62-76.75" style="fill: none; stroke: #1d1d1b; stroke-miterlimit: 10; stroke-width: 2px;"/>
    <path d="m766.59,1249.61c17.52-25.03,35.03-50.06,52.55-75.09" style="fill: none; stroke: #1d1d1b; stroke-miterlimit: 10; stroke-width: 2px;"/>
    <path d="m513.08,1329.67c12.31,2.67,27.35,4.9,44.56,5.3,21.73.5,40.39-2.07,54.84-5.15" style="fill: none; stroke: #1d1d1b; stroke-miterlimit: 10; stroke-width: 2px;"/>
    <path d="m513.68,1176.37c12.9,1.99,27.66,3.46,43.96,3.74,20.61.35,38.96-1.31,54.44-3.67" style="fill: none; stroke: #1d1d1b; stroke-miterlimit: 10; stroke-width: 2px;"/>
    <path d="m1124.79,1326.23c-17.32-26.07-34.64-52.13-51.96-78.2-13.38-3.24-30.44-6.17-50.35-6.7-19.34-.51-36.11,1.38-49.39,3.8-18.12,27.7-36.25,55.4-54.37,83.11,16.7,26.9,33.4,53.8,50.11,80.7,13.85-2.44,30.4-4.33,49.11-4.44,20.8-.13,39.05,1.97,54,4.67,17.62-27.64,35.23-55.29,52.85-82.93" style="fill: none; stroke: #1d1d1b; stroke-miterlimit: 10; stroke-width: 2px;"/>
    <path d="m973.09,1245.13c-18.26-23.42-36.51-46.85-54.77-70.27,16.47-26.45,32.94-52.91,49.41-79.36" style="fill: none; stroke: #1d1d1b; stroke-miterlimit: 10; stroke-width: 2px;"/>
    <path d="m1125.38,1172.93c-17.87-25.58-35.75-51.17-53.62-76.75" style="fill: none; stroke: #1d1d1b; stroke-miterlimit: 10; stroke-width: 2px;"/>
    <path d="m1072.83,1248.02c17.52-25.03,35.03-50.06,52.55-75.09" style="fill: none; stroke: #1d1d1b; stroke-miterlimit: 10; stroke-width: 2px;"/>
    <path d="m818.54,1327.81c13.62,2.07,29.25,3.6,46.54,3.85,20.19.29,38.25-1.22,53.63-3.42" style="fill: none; stroke: #1d1d1b; stroke-miterlimit: 10; stroke-width: 2px;"/>
    <path d="m819.14,1174.51c13.04,2.11,28.07,3.7,44.75,4.01,20.68.39,39.04-1.29,54.44-3.67" style="fill: none; stroke: #1d1d1b; stroke-miterlimit: 10; stroke-width: 2px;"/>
    <path d="m1430.24,1324.37c-17.32-26.07-34.64-52.13-51.96-78.2-13.38-3.24-30.44-6.17-50.35-6.7-19.34-.51-36.11,1.38-49.39,3.8-18.12,27.7-36.25,55.4-54.37,83.11,16.7,26.9,33.4,53.8,50.11,80.7,13.85-2.44,30.4-4.33,49.11-4.44,20.8-.13,39.05,1.97,54,4.67,17.62-27.64,35.23-55.29,52.85-82.93" style="fill: none; stroke: #1d1d1b; stroke-miterlimit: 10; stroke-width: 2px;"/>
    <path d="m1278.55,1243.27c-18.26-23.42-36.51-46.85-54.77-70.27,16.47-26.45,32.94-52.91,49.41-79.36" style="fill: none; stroke: #1d1d1b; stroke-miterlimit: 10; stroke-width: 2px;"/>
    <path d="m1430.84,1171.07c-17.24-25.83-34.47-51.66-51.71-77.49" style="fill: none; stroke: #1d1d1b; stroke-miterlimit: 10; stroke-width: 2px;"/>
    <path d="m1378.29,1246.17c17.52-25.03,35.03-50.06,52.55-75.09" style="fill: none; stroke: #1d1d1b; stroke-miterlimit: 10; stroke-width: 2px;"/>
    <path d="m1124.79,1326.23c12.31,2.67,27.35,4.9,44.56,5.3,21.73.5,40.39-2.07,54.83-5.15" style="fill: none; stroke: #1d1d1b; stroke-miterlimit: 10; stroke-width: 2px;"/>
    <path d="m1125.38,1172.93c12.9,1.99,27.66,3.46,43.96,3.74,20.61.35,38.96-1.31,54.44-3.67" style="fill: none; stroke: #1d1d1b; stroke-miterlimit: 10; stroke-width: 2px;"/>
  </g>
</svg>